<svg version="1.1" id="Layer_1" xmlns="http://www.w3.org/2000/svg" x="0" y="0" viewBox="0 0 205.4 38.4" xml:space="preserve"><path fill="#FFF" d="M49.7 28.3c-.4-.6-1-1.8-1.6-3.7l-3.7-10.9H41l-3.2 9.6c-1 3.1-1.9 4.9-2.6 5.6-.3.3-.7.5-1.2.6v.1h5.7v-.1c-.6-.1-1-.3-1.3-.5-.3-.2-.4-.7-.4-1.4s.3-1.9.9-3.8h5.3l.4 1.3c.4 1.4.7 2.3.7 2.9 0 .5-.1.9-.3 1.1-.2.2-.5.4-1 .4v.1h7.3v-.1c-.7-.2-1.2-.6-1.6-1.2zm-10.6-5.5l2.3-7.2 2.3 7.2h-4.6zm35 4.6L70.4 22c.9-.3 1.8-.7 2.6-1.4.8-.6 1.3-1.5 1.3-2.6 0-2.9-2.2-4.3-6.7-4.3h-6.8v.1c.7.3 1.2.6 1.4 1.1.2.4.3 1.1.3 2v9.5c0 .9-.1 1.6-.3 2-.2.4-.7.8-1.4 1.1v.1H68v-.1c-.7-.3-1.2-.7-1.4-1.1-.2-.4-.3-1.1-.3-2v-3.8h.7l2.8 4.7c.5.8.8 1.4 1.1 1.6.2.3.5.5.9.5.3.1.9.1 1.7.1h3v-.1c-.4-.1-.7-.3-1-.6-.4-.1-.8-.7-1.4-1.4zm-4.7-6.5c-.7.6-1.5 1-2.4 1h-.8v-7.3h1.3c.8 0 1.5.3 2.1 1 .6.6.8 1.5.8 2.7 0 1.1-.3 1.9-1 2.6zM96.7 14c-1-.4-2-.6-3.1-.6s-2.1.2-3.1.6c-2.2.9-3.7 2.3-4.7 4.3-.5 1.1-.7 2.2-.7 3.4 0 1.7.4 3.1 1.3 4.4.8 1.3 1.9 2.2 3.1 2.9 1.2.6 2.5 1 3.8 1 1.3 0 2.4-.2 3.4-.6 2.2-.9 3.7-2.3 4.6-4.2.5-1.1.7-2.2.7-3.4 0-1.2-.2-2.4-.7-3.4-.9-2.1-2.5-3.5-4.6-4.4zm.3 12.9c-.8 1.4-2 2.1-3.4 2.1s-2.6-.7-3.4-2.1c-.8-1.4-1.2-3.2-1.2-5.3 0-2.1.4-3.9 1.2-5.3.8-1.4 2-2.1 3.4-2.1s2.6.7 3.4 2.1c.8 1.4 1.2 3.2 1.2 5.3.1 2.2-.4 3.9-1.2 5.3zm27.8-1.5c-.1.1-.5.6-1.2 1.5-.7.8-1.2 1.3-1.6 1.5-.7.3-1.3.4-2.1.4h-1.5V16.9c0-.9.1-1.5.3-2 .2-.4.7-.8 1.4-1.1v-.1H113v.1c.7.3 1.2.6 1.4 1.1.2.4.3 1.1.3 2v9.6c0 .9-.1 1.6-.3 2-.2.4-.7.8-1.4 1.1v.1h11.7l.5-4.5h-.2s-.1 0-.2.2zm25.5 2.9c-.4-.6-1-1.8-1.6-3.7L145 13.7h-3.4l-3.2 9.6c-1 3.1-1.9 4.9-2.6 5.6-.3.3-.7.5-1.2.6v.1h5.7v-.1c-.6-.1-1-.3-1.3-.5-.3-.2-.4-.7-.4-1.4s.3-1.9.9-3.8h5.3l.4 1.3c.4 1.4.7 2.3.7 2.9 0 .5-.1.9-.3 1.1-.2.2-.5.4-1 .4v.1h7.3v-.1c-.7-.2-1.2-.6-1.6-1.2zm-10.6-5.5l2.3-7.2 2.3 7.2h-4.6zm34.1-9c.5.2.9.5 1.2.8.5.6.8 2.1.8 4.4v5.4l-9.1-10.6h-5.5v.1c.7.3 1.3.7 1.6 1.1.3.4.5 1 .5 1.7v7.6c0 1.8-.1 3.1-.4 3.8-.3.7-.8 1.2-1.6 1.5v.1h5.3v-.1c-.8-.3-1.3-.8-1.6-1.5-.3-.7-.4-1.9-.4-3.8v-7.5l10.9 12.9h1.6V19c0-2.3.3-3.8.8-4.4.3-.3.6-.6 1.2-.8v-.1l-5.3.1zm30.3 3.2c-1.6-2.2-4.1-3.3-7.6-3.3h-7.9v.1c.7.3 1.2.6 1.4 1.1.2.4.3 1.1.3 2v9.5c0 .9-.1 1.6-.3 2-.2.4-.7.8-1.4 1.1v.1h7.6c2.6 0 4.8-.8 6.5-2.3 1.7-1.5 2.6-3.6 2.6-6.1.1-1.6-.3-3-1.2-4.2zm-4 9.7c-.9 1.3-2.3 2-4 2h-1.9V14.6h2.2c1.5 0 2.7.6 3.7 1.9 1 1.3 1.5 3 1.5 5 0 2.2-.5 3.9-1.5 5.2zM19.5 22.8c1.1-1 2.2-2.1 3.5-3.3C33.3 9.1 21.5 2.8 21.5 2.8c1.6 2.9 1.9 5.5 1.4 7.8-1.2 5.4-7.1 9.6-13.4 14.8-9 7.5 0 12 0 12-2.3-6.6.6-5.9 10-14.6zm8.4-15c3.7 5.9.7 10.9-15 22.9-6 4.5.4 7.6.4 7.6-1.9-4.6.8-4.9 8.7-11.5 16.3-12.5 5.9-19 5.9-19zm-22 19.9c-2.6-1.3-5.1-5.8-.5-11.4 0 0-11.6 6.6-1 17.5.1-.2-.9-3.7 1.5-6.1z"/><g><path fill="#D0B483" d="M16.6 2.8v14.3c1.5-1.4 2.8-2.7 3.8-4.1V0c-3.7 0-3.8 2.8-3.8 2.8zm-5.2 4.1v14.7c.1 0 3.3-2.7 3.8-3.2V4c-3.7 0-3.8 2.9-3.8 2.9zM6.3 11v15.7l3.8-4.1V8.1C6.3 8.1 6.3 11 6.3 11z"/></g></svg>